<svg width="150" height="150" viewBox="0 0 150 150" fill="none" xmlns="http://www.w3.org/2000/svg">
<rect width="150" height="150" rx="7" fill="#612F74"/>
<path d="M75.4516 89.76C62.6716 89.76 54.9916 98.28 54.9916 111.3C54.9916 124.26 62.6716 132.84 75.4516 132.84C88.1716 132.84 95.9116 124.26 95.9116 111.3C95.9116 98.28 88.1716 89.76 75.4516 89.76ZM75.4516 126.66C68.0716 126.66 63.6316 120.96 63.6316 111.3C63.6316 101.58 68.0716 95.94 75.4516 95.94C82.7716 95.94 87.2116 101.58 87.2116 111.3C87.2116 120.96 82.7716 126.66 75.4516 126.66ZM133.151 121.56C132.671 116.94 131.111 113.52 127.031 111.96C131.951 110.58 135.131 107.22 135.131 101.88C135.131 94.74 130.271 91.62 124.271 90.9C122.231 90.66 120.671 90.6 118.271 90.6H103.151V132H111.431V115.32H116.231C117.311 115.32 118.331 115.32 119.471 115.38C122.831 115.62 124.511 118.32 125.051 122.76C125.471 126.66 126.071 129.18 127.091 132H136.151C134.471 129.66 133.691 126.6 133.151 121.56ZM111.431 109.14V97.08H117.491C118.991 97.08 120.011 97.14 120.971 97.26C124.211 97.68 126.431 99.12 126.431 103.14C126.431 107.16 123.791 108.78 120.491 109.08C119.591 109.14 118.571 109.14 117.131 109.14H111.431Z" fill="white"/>
</svg>
